<svg data-name="address" xmlns="http://www.w3.org/2000/svg" xmlns:xlink="http://www.w3.org/1999/xlink" viewBox="0 0 22.807 26"><path d="M18.01 13.596H.75a.75.75 0 0 1-.75-.75V3.278a.75.75 0 0 1 .75-.75h17.26a.75.75 0 0 1 .574.267L22.631 7.6a.75.75 0 0 1-.002.969l-4.047 4.763a.754.754 0 0 1-.572.264m-16.51-1.5h16.163l3.412-4.015-3.414-4.053H1.5v8.068z"/><path d="M10.057 3.833a.75.75 0 0 1-.75-.75V.75a.75.75 0 0 1 1.5 0v2.333a.75.75 0 0 1-.75.75M10.557 26a.75.75 0 0 1-.75-.75V13.083a.75.75 0 0 1 1.5 0V25.25a.75.75 0 0 1-.75.75"/></svg>