<svg data-name="clock" xmlns="http://www.w3.org/2000/svg" xmlns:xlink="http://www.w3.org/1999/xlink" viewBox="0 0 25.833 25.833"><path d="M12.917 25.833C5.794 25.833 0 20.038 0 12.916S5.794 0 12.917 0s12.917 5.794 12.917 12.916-5.796 12.917-12.917 12.917m0-24.333C6.622 1.5 1.5 6.621 1.5 12.916s5.122 11.417 11.417 11.417 11.417-5.122 11.417-11.417S19.212 1.5 12.917 1.5"/><path d="M17 18.083a.744.744 0 0 1-.53-.22l-4.417-4.417a.747.747 0 0 1-.22-.53V4.75a.75.75 0 0 1 1.5 0v7.855l4.197 4.198a.749.749 0 0 1-.53 1.28"/></svg>