<svg data-name="fb" xmlns="http://www.w3.org/2000/svg" viewBox="0 0 25.833 25.833"><path d="M12.917 25.833C5.794 25.833 0 20.038 0 12.916S5.794 0 12.917 0s12.917 5.794 12.917 12.916-5.795 12.917-12.917 12.917zm0-24.333C6.622 1.5 1.5 6.621 1.5 12.916s5.122 11.417 11.417 11.417 11.417-5.122 11.417-11.417S19.211 1.5 12.917 1.5z"/><path d="M15.981 10.589h-2.098V9.22c0-.507.342-.625.595-.625h1.458V6.333h-2.023c-2.246 0-2.752 1.681-2.752 2.752v1.504H9.852v2.335h1.309v6.577h2.723v-6.577h1.86l.237-2.335z"/></svg>