<svg data-name="mail" xmlns="http://www.w3.org/2000/svg" viewBox="0 0 25.833 18"><path d="M23.979 18H1.855A1.857 1.857 0 0 1 0 16.146V1.855C0 .832.833 0 1.855 0h22.123c1.023 0 1.855.832 1.855 1.855v14.29A1.857 1.857 0 0 1 23.979 18zM1.855 1.5a.356.356 0 0 0-.355.355v14.29c0 .195.16.354.355.354h22.123a.355.355 0 0 0 .355-.354V1.855a.355.355 0 0 0-.355-.355H1.855z"/><path d="M12.917 11.834a.751.751 0 0 1-.453-.152L.297 2.453a.75.75 0 0 1 .906-1.196l11.714 8.885L24.63 1.258a.75.75 0 1 1 .906 1.196L13.37 11.682a.751.751 0 0 1-.453.152z"/></svg>